<svg xmlns="http://www.w3.org/2000/svg" viewBox="0 0 64 64" role="img" aria-label="Docker Updater favicon">
  <defs>
    <linearGradient id="bg" x1="0" y1="0" x2="1" y2="1">
      <stop offset="0%" stop-color="#0b1220"/>
      <stop offset="100%" stop-color="#111b33"/>
    </linearGradient>
    <linearGradient id="ship" x1="0" y1="0" x2="1" y2="1">
      <stop offset="0%" stop-color="#38bdf8"/>
      <stop offset="100%" stop-color="#0ea5e9"/>
    </linearGradient>
  </defs>

  <rect x="2" y="2" width="60" height="60" rx="14" fill="url(#bg)"/>

  <g fill="url(#ship)">
    <rect x="16" y="22" width="8" height="8" rx="1.5"/>
    <rect x="25" y="22" width="8" height="8" rx="1.5"/>
    <rect x="34" y="22" width="8" height="8" rx="1.5"/>
    <rect x="25" y="13" width="8" height="8" rx="1.5"/>
    <path d="M14 34h33c1.6 0 2.8 1.4 2.4 3l-1.2 4.7c-1 3.8-4.4 6.4-8.3 6.4H23.7c-3.9 0-7.3-2.6-8.3-6.4L14.2 37c-.4-1.6.8-3 2.4-3z"/>
  </g>

  <path d="M49 18l4 4-4 4" fill="none" stroke="#f8fafc" stroke-width="3" stroke-linecap="round" stroke-linejoin="round"/>
</svg>
